<svg xmlns="http://www.w3.org/2000/svg" viewBox="0 0 1920 1080">
  <defs>
    <!-- グラデーション定義 -->
    <linearGradient id="skyGradient" x1="0%" y1="0%" x2="0%" y2="100%">
      <stop offset="0%" style="stop-color:#f8f6f0;stop-opacity:1" />
      <stop offset="50%" style="stop-color:#e8e5dd;stop-opacity:1" />
      <stop offset="100%" style="stop-color:#d4c4a8;stop-opacity:1" />
    </linearGradient>
    
    <linearGradient id="mountainGradient" x1="0%" y1="0%" x2="0%" y2="100%">
      <stop offset="0%" style="stop-color:#1a365d;stop-opacity:0.8" />
      <stop offset="50%" style="stop-color:#2c2c2c;stop-opacity:0.6" />
      <stop offset="100%" style="stop-color:#374151;stop-opacity:0.4" />
    </linearGradient>
    
    <linearGradient id="waterGradient" x1="0%" y1="0%" x2="0%" y2="100%">
      <stop offset="0%" style="stop-color:#1a365d;stop-opacity:0.3" />
      <stop offset="50%" style="stop-color:#2c2c2c;stop-opacity:0.2" />
      <stop offset="100%" style="stop-color:#1a365d;stop-opacity:0.4" />
    </linearGradient>
    
    <radialGradient id="goldenLight" cx="50%" cy="30%" r="70%">
      <stop offset="0%" style="stop-color:#b8860b;stop-opacity:0.1" />
      <stop offset="100%" style="stop-color:#b8860b;stop-opacity:0" />
    </radialGradient>
  </defs>
  
  <!-- 空の背景 -->
  <rect width="1920" height="1080" fill="url(#skyGradient)"/>
  
  <!-- 遠山 -->
  <path d="M 0 400 L 200 350 L 400 380 L 600 360 L 800 340 L 1000 350 L 1200 330 L 1400 340 L 1600 320 L 1800 330 L 1920 350 L 1920 1080 L 0 1080 Z" 
        fill="url(#mountainGradient)"/>
  
  <!-- 中景の山 -->
  <path d="M 0 500 L 300 450 L 600 480 L 900 460 L 1200 440 L 1500 450 L 1800 430 L 1920 450 L 1920 1080 L 0 1080 Z" 
        fill="url(#mountainGradient)" opacity="0.7"/>
  
  <!-- 近景の山 -->
  <path d="M 0 600 L 400 550 L 800 580 L 1200 560 L 1600 540 L 1920 560 L 1920 1080 L 0 1080 Z" 
        fill="url(#mountainGradient)" opacity="0.5"/>
  
  <!-- 水面 -->
  <rect x="0" y="700" width="1920" height="380" fill="url(#waterGradient)"/>
  
  <!-- 波のパターン -->
  <g opacity="0.3">
    <path d="M 0 750 Q 100 720 200 750 Q 300 780 400 750 Q 500 720 600 750 Q 700 780 800 750 Q 900 720 1000 750 Q 1100 780 1200 750 Q 1300 720 1400 750 Q 1500 780 1600 750 Q 1700 720 1800 750 Q 1900 780 1920 750" 
          stroke="#1a365d" stroke-width="2" fill="none"/>
    <path d="M 0 800 Q 150 770 300 800 Q 450 830 600 800 Q 750 770 900 800 Q 1050 830 1200 800 Q 1350 770 1500 800 Q 1650 830 1800 800 Q 1950 770 1920 800" 
          stroke="#1a365d" stroke-width="2" fill="none"/>
    <path d="M 0 850 Q 120 820 240 850 Q 360 880 480 850 Q 600 820 720 850 Q 840 880 960 850 Q 1080 820 1200 850 Q 1320 880 1440 850 Q 1560 820 1680 850 Q 1800 880 1920 850" 
          stroke="#1a365d" stroke-width="2" fill="none"/>
  </g>
  
  <!-- 酒器のシルエット -->
  <g transform="translate(960, 500)">
    <!-- 酒器本体 -->
    <ellipse cx="0" cy="0" rx="60" ry="120" fill="#2c2c2c" opacity="0.6"/>
    <ellipse cx="0" cy="0" rx="55" ry="115" fill="none" stroke="#1a365d" stroke-width="2" opacity="0.4"/>
    
    <!-- 酒器の口 -->
    <ellipse cx="0" cy="-100" rx="25" ry="15" fill="#2c2c2c" opacity="0.6"/>
    
    <!-- 注がれる液体 -->
    <path d="M 0 -100 Q 5 -50 0 0" stroke="#b8860b" stroke-width="3" fill="none" opacity="0.8">
      <animate attributeName="opacity" values="0.8;0.3;0.8" dur="2s" repeatCount="indefinite"/>
    </path>
    
    <!-- 水滴 -->
    <circle cx="0" cy="-50" r="2" fill="#b8860b" opacity="0.6">
      <animate attributeName="cy" values="-50;-30;-50" dur="1.5s" repeatCount="indefinite"/>
      <animate attributeName="opacity" values="0.6;0.2;0.6" dur="1.5s" repeatCount="indefinite"/>
    </circle>
  </g>
  
  <!-- 金箔の光 -->
  <rect width="1920" height="1080" fill="url(#goldenLight)"/>
  
  <!-- 雲 -->
  <g opacity="0.4">
    <ellipse cx="300" cy="200" rx="80" ry="30" fill="#f8f6f0"/>
    <ellipse cx="1200" cy="150" rx="100" ry="40" fill="#f8f6f0"/>
    <ellipse cx="1600" cy="250" rx="70" ry="25" fill="#f8f6f0"/>
  </g>
  
  <!-- 鳥のシルエット -->
  <g opacity="0.3">
    <path d="M 200 300 Q 220 290 240 300 Q 260 310 280 300" stroke="#2c2c2c" stroke-width="2" fill="none"/>
    <path d="M 1400 200 Q 1420 190 1440 200 Q 1460 210 1480 200" stroke="#2c2c2c" stroke-width="2" fill="none"/>
    <path d="M 800 180 Q 820 170 840 180 Q 860 190 880 180" stroke="#2c2c2c" stroke-width="2" fill="none"/>
  </g>
</svg>